<svg xmlns="http://www.w3.org/2000/svg" xmlns:xlink="http://www.w3.org/1999/xlink" width="470" height="428"><defs><path id="a" d="M.14.455h9.271V9.93H.14z"/></defs><g fill="none" fill-rule="evenodd"><path fill="#EDF4F9" d="M2 0h467v428H2z" opacity=".418"/><path stroke="#9AA9C0" stroke-width="1.112" d="M179.225 181L117 243.225 54.775 181"/><path stroke="#404C77" stroke-width="1.125" d="M417.433 181.5L354.5 244.433 291.567 181.5"/><text fill="#383838" font-family="TTNorms-Bold, TT Norms" font-size="9" font-weight="bold" letter-spacing=".18"><tspan x="337.59" y="355.18">TEST 2</tspan></text><text fill="#383838" font-family="TTNorms-Bold, TT Norms" font-size="9" font-weight="bold" letter-spacing=".18"><tspan x="101.4" y="355.18">TEST 1</tspan></text><path fill="#404C77" d="M116.456 266.272c-.302 0-.604-.302-.604-.606s.302-.606.604-.606c.303 0 .605.302.605.606 0 .455-.302.606-.605.606M163.579 264H69.334a4.397 4.397 0 00-4.394 4.392v61.67c0 .301.302.605.608.605h101.97c.304 0 .606-.304.606-.605v-61.67c-.151-2.422-2.12-4.392-4.545-4.392"/><path fill="#7BB0D5" d="M122.213 331.576h-11.514c-.304 0-.608.304-.608.605h12.729c0-.301-.302-.605-.606-.605"/><path fill="#404C77" d="M177.064 332.182h-54.245c0 .304-.302.606-.606.606h-11.514c-.302 0-.608-.302-.608-.606h-54.09c0 1.819 1.516 3.334 3.333 3.334h114.547c1.666 0 3.183-1.515 3.183-3.334"/><path fill="#7BB0D5" d="M56 332.182l9.092-1.668m102.729.001l9.09 1.668"/><path fill="#9AA9C0" d="M160.392 326.923H72.307a3.832 3.832 0 01-3.821-3.821v-51.563a3.832 3.832 0 013.82-3.821h88.086a3.83 3.83 0 013.821 3.82v51.564a3.83 3.83 0 01-3.82 3.82"/><path fill="#404C77" d="M353.456 266.272c-.302 0-.604-.302-.604-.606s.302-.606.604-.606c.303 0 .605.302.605.606 0 .455-.302.606-.605.606M400.579 264h-94.245a4.397 4.397 0 00-4.394 4.392v61.67c0 .301.302.605.608.605h101.97c.304 0 .606-.304.606-.605v-61.67c-.151-2.422-2.12-4.392-4.545-4.392"/><path fill="#7BB0D5" d="M359.213 331.576h-11.514c-.304 0-.608.304-.608.605h12.729c0-.301-.302-.605-.606-.605"/><path fill="#404C77" d="M414.064 332.182h-54.245c0 .304-.302.606-.606.606h-11.514c-.302 0-.608-.302-.608-.606h-54.09c0 1.819 1.516 3.334 3.333 3.334h114.547c1.666 0 3.183-1.515 3.183-3.334"/><path fill="#7BB0D5" d="M293 332.182l9.092-1.668m102.729.001l9.09 1.668"/><path fill="#9AA9C0" d="M397.392 326.923h-88.085a3.832 3.832 0 01-3.821-3.821v-51.563a3.832 3.832 0 013.82-3.821h88.086a3.83 3.83 0 013.821 3.82v51.564a3.83 3.83 0 01-3.82 3.82"/><g fill="#C5DCED" opacity=".5"><path d="M43.732 146.705c-3.14 0-5.17-2.28-7.196-5.262l-3.815-5.673c-2.463-3.266-5.565-6.01-10.494-5.894-4.807.113-7.905 2.805-10.38 5.982.587.82 1.135 1.643 1.66 2.431.233.35.463.695.692 1.035 2.152-3 4.496-5.406 8.122-5.491 3.661-.087 5.896 2.302 8.064 5.46.34.487 3.803 5.673 3.803 5.673 2.297 3.081 5.147 5.697 9.544 5.697v-3.958zm0-16.637c-4.41 0-7.265 2.633-9.566 5.725l2.35 3.525c2.031-2.996 4.067-5.292 7.216-5.292v-3.958zm-.778 6.76a.784.784 0 00-.782-.782.784.784 0 00-.782.781v7.136c0 .43.352.782.782.782.43 0 .782-.352.782-.782v-7.136zm-2.728 2.176a.784.784 0 00-.782-.782.784.784 0 00-.782.782v2.782c0 .43.352.782.782.782.43 0 .782-.352.782-.782v-2.782zm-9.82 2.403c-2.176 3.173-4.413 5.579-8.085 5.492-4.038-.095-6.488-3.067-8.85-6.533-.318-.466-.634-.94-.953-1.42a100.6 100.6 0 00-1.419-2.091c-2.465-3.504-5.449-6.787-10.283-6.787v3.958c3.422 0 5.56 2.862 7.891 6.34l.517.774c.6.903 1.218 1.83 1.875 2.736 2.602 3.592 5.826 6.855 11.128 6.98 4.95.116 8.058-2.651 10.525-5.935l-2.347-3.514zm-1.576-2.403a.784.784 0 00-.782-.782.784.784 0 00-.782.782v2.782c0 .43.352.782.782.782.43 0 .782-.352.782-.782v-2.782zm-2.818-2.177a.783.783 0 00-1.563 0v7.136c0 .43.352.782.782.782.43 0 .781-.352.781-.782v-7.136zm-2.826-1.187a.784.784 0 00-.782-.782.784.784 0 00-.782.782v9.51c0 .43.352.782.782.782.43 0 .782-.352.782-.781v-9.511zm-2.74 1.187a.782.782 0 00-1.563 0v7.136c0 .43.352.782.782.782.43 0 .782-.352.782-.782v-7.136zm-2.727 2.177a.784.784 0 00-.782-.782.784.784 0 00-.782.782v2.782c0 .43.352.782.782.782.43 0 .782-.352.782-.782v-2.782zm-9.484 2.794l-.25-.374c-2.066 2.98-4.102 5.281-7.17 5.281v3.958c4.366 0 7.224-2.678 9.553-5.779-.767-1.035-1.468-2.088-2.133-3.086zm-2.18-2.794a.784.784 0 00-.782-.782.784.784 0 00-.782.782v2.782c0 .43.352.782.782.782.43 0 .782-.352.782-.782v-2.782zm-2.772-2.177a.784.784 0 00-.782-.781.784.784 0 00-.782.781v7.136c0 .43.352.782.782.782.43 0 .782-.352.782-.782v-7.136zm125.546 9.878c-3.14 0-5.17-2.28-7.196-5.262l-3.816-5.673c-2.462-3.266-5.565-6.01-10.493-5.894-4.807.113-7.905 2.805-10.38 5.982.587.82 1.135 1.643 1.66 2.431.233.35.463.695.692 1.035 2.151-3 4.495-5.406 8.121-5.491 3.662-.087 5.896 2.302 8.064 5.46.34.487 3.804 5.673 3.804 5.673 2.297 3.081 5.147 5.697 9.544 5.697v-3.958zm0-16.637c-4.41 0-7.266 2.633-9.566 5.725l2.35 3.525c2.031-2.996 4.066-5.292 7.216-5.292v-3.958zm-.779 6.76a.783.783 0 00-1.563-.001v7.136c0 .43.352.782.781.782.43 0 .782-.352.782-.782v-7.136zm-2.728 2.176a.784.784 0 00-.782-.782.784.784 0 00-.781.782v2.782c0 .43.352.782.781.782.43 0 .782-.352.782-.782v-2.782zm-9.82 2.403c-2.175 3.173-4.412 5.579-8.085 5.492-4.038-.095-6.487-3.067-8.85-6.533-.318-.466-.634-.94-.952-1.42-.46-.689-.93-1.394-1.42-2.091-2.465-3.504-5.45-6.787-10.282-6.787v3.958c3.421 0 5.56 2.862 7.89 6.34.172.255.343.513.518.774.6.903 1.218 1.83 1.875 2.736 2.602 3.592 5.825 6.855 11.128 6.98 4.95.116 8.058-2.651 10.525-5.935l-2.347-3.514zm-1.576-2.403a.784.784 0 00-.781-.782.784.784 0 00-.782.782v2.782c0 .43.352.782.782.782.43 0 .781-.352.781-.782v-2.782zm-2.817-2.177a.783.783 0 00-1.563 0v7.136c0 .43.352.782.781.782.43 0 .782-.352.782-.782v-7.136zm-2.826-1.187a.784.784 0 00-.782-.782.784.784 0 00-.782.782v9.51c0 .43.352.782.782.782.43 0 .782-.352.782-.781v-9.511zm-2.74 1.187a.783.783 0 00-1.563 0v7.136c0 .43.352.782.782.782.43 0 .781-.352.781-.782v-7.136zm-2.727 2.177a.785.785 0 00-.782-.782.784.784 0 00-.782.782v2.782c0 .43.352.782.782.782.43 0 .782-.352.782-.782v-2.782zm-9.484 2.794l-.25-.374c-2.067 2.98-4.103 5.281-7.17 5.281v3.958c4.365 0 7.224-2.678 9.553-5.779-.768-1.035-1.469-2.088-2.133-3.086zm-2.18-2.794a.785.785 0 00-.782-.782.784.784 0 00-.782.782v2.782c0 .43.351.782.782.782.43 0 .781-.352.781-.782v-2.782zm-2.773-2.177a.783.783 0 00-1.563 0v7.136c0 .43.352.782.782.782.43 0 .781-.352.781-.782v-7.136z"/><path d="M171.377 146.705c-3.14 0-5.17-2.28-7.196-5.262l-3.815-5.673c-2.463-3.266-5.566-6.01-10.494-5.894-4.807.113-7.905 2.805-10.38 5.982.587.82 1.135 1.643 1.66 2.431.233.35.463.695.692 1.035 2.152-3 4.495-5.406 8.122-5.491 3.66-.087 5.896 2.302 8.064 5.46.34.487 3.803 5.673 3.803 5.673 2.297 3.081 5.147 5.697 9.544 5.697v-3.958zm0-16.637c-4.41 0-7.265 2.633-9.566 5.725l2.35 3.525c2.031-2.996 4.067-5.292 7.216-5.292v-3.958zm-.778 6.76a.785.785 0 00-.782-.782.784.784 0 00-.782.781v7.136c0 .43.352.782.782.782.43 0 .782-.352.782-.782v-7.136zm-2.728 2.176a.784.784 0 00-.782-.782.784.784 0 00-.782.782v2.782c0 .43.352.782.782.782.43 0 .782-.352.782-.782v-2.782zm-9.82 2.403c-2.176 3.173-4.413 5.579-8.085 5.492-4.039-.095-6.488-3.067-8.85-6.533-.318-.466-.634-.94-.953-1.42-.46-.689-.929-1.394-1.419-2.091-2.465-3.504-5.45-6.787-10.283-6.787v3.958c3.422 0 5.56 2.862 7.89 6.34.172.255.344.513.518.774.6.903 1.218 1.83 1.875 2.736 2.602 3.592 5.825 6.855 11.128 6.98 4.95.116 8.058-2.651 10.525-5.935l-2.347-3.514zm-1.576-2.403a.784.784 0 00-.782-.782.784.784 0 00-.782.782v2.782c0 .43.352.782.782.782.43 0 .782-.352.782-.782v-2.782zm-2.818-2.177a.783.783 0 00-1.563 0v7.136c0 .43.352.782.782.782.43 0 .781-.352.781-.782v-7.136zm-2.826-1.187a.784.784 0 00-.782-.782.784.784 0 00-.782.782v9.51c0 .43.352.782.782.782.43 0 .782-.352.782-.781v-9.511zm-2.74 1.187a.782.782 0 00-1.563 0v7.136c0 .43.352.782.782.782.43 0 .782-.352.782-.782v-7.136zm-2.727 2.177a.784.784 0 00-.782-.782.784.784 0 00-.782.782v2.782c0 .43.352.782.782.782.43 0 .782-.352.782-.782v-2.782zm-9.484 2.794l-.25-.374c-2.066 2.98-4.102 5.281-7.17 5.281v3.958c4.366 0 7.224-2.678 9.553-5.779-.767-1.035-1.468-2.088-2.133-3.086zm-2.18-2.794a.784.784 0 00-.782-.782.784.784 0 00-.782.782v2.782c0 .43.352.782.782.782.43 0 .782-.352.782-.782v-2.782zm-2.773-2.177a.783.783 0 00-1.563 0v7.136c0 .43.352.782.782.782.43 0 .781-.352.781-.782v-7.136z"/><path d="M213.926 146.705c-3.14 0-5.171-2.28-7.196-5.262l-3.816-5.673c-2.463-3.266-5.564-6.01-10.493-5.894-4.807.113-7.906 2.805-10.381 5.982.587.82 1.136 1.643 1.66 2.431.234.35.464.695.693 1.035 2.15-3 4.495-5.406 8.121-5.491 3.661-.087 5.896 2.302 8.064 5.46.34.487 3.803 5.673 3.803 5.673 2.297 3.081 5.147 5.697 9.545 5.697v-3.958zm0-16.637c-4.411 0-7.266 2.633-9.566 5.725l2.349 3.525c2.032-2.996 4.067-5.292 7.217-5.292v-3.958zm-.779 6.76a.784.784 0 00-.782-.782.784.784 0 00-.782.781v7.136c0 .43.352.782.782.782.43 0 .782-.352.782-.782v-7.136zm-2.728 2.176a.784.784 0 00-.782-.782.784.784 0 00-.782.782v2.782c0 .43.352.782.782.782.43 0 .782-.352.782-.782v-2.782zm-9.82 2.403c-2.175 3.173-4.413 5.579-8.085 5.492-4.038-.095-6.487-3.067-8.85-6.533-.318-.466-.634-.94-.952-1.42-.46-.689-.93-1.394-1.42-2.091-2.465-3.504-5.45-6.787-10.283-6.787v3.958c3.422 0 5.56 2.862 7.891 6.34l.517.774c.601.903 1.218 1.83 1.875 2.736 2.602 3.592 5.826 6.855 11.129 6.98 4.949.116 8.057-2.651 10.525-5.935l-2.347-3.514zm-1.576-2.403a.784.784 0 00-.782-.782.784.784 0 00-.781.782v2.782c0 .43.351.782.781.782.43 0 .782-.352.782-.782v-2.782zm-2.817-2.177a.784.784 0 00-.782-.781.784.784 0 00-.782.781v7.136c0 .43.352.782.782.782.43 0 .782-.352.782-.782v-7.136zm-2.827-1.187a.784.784 0 00-.782-.782.784.784 0 00-.781.782v9.51c0 .43.351.782.781.782.43 0 .782-.352.782-.781v-9.511zm-2.739 1.187a.783.783 0 00-1.563 0v7.136c0 .43.351.782.781.782.43 0 .782-.352.782-.782v-7.136zm-2.728 2.177a.784.784 0 00-.782-.782.784.784 0 00-.781.782v2.782c0 .43.352.782.781.782.43 0 .782-.352.782-.782v-2.782zm-9.484 2.794c-.083-.127-.166-.25-.249-.374-2.067 2.98-4.103 5.281-7.17 5.281v3.958c4.365 0 7.224-2.678 9.552-5.779-.767-1.035-1.468-2.088-2.133-3.086zm-2.18-2.794a.784.784 0 00-.782-.782.784.784 0 00-.781.782v2.782c0 .43.351.782.781.782.43 0 .782-.352.782-.782v-2.782zm-2.772-2.177a.783.783 0 00-.781-.781.784.784 0 00-.783.781v7.136c0 .43.352.782.783.782.43 0 .78-.352.78-.782v-7.136z"/><path d="M256.474 146.705c-3.14 0-5.17-2.28-7.196-5.262l-3.816-5.673c-2.462-3.266-5.565-6.01-10.492-5.894-4.807.113-7.905 2.805-10.381 5.982.588.82 1.136 1.643 1.66 2.431.234.35.464.695.693 1.035 2.151-3 4.495-5.406 8.121-5.491 3.662-.087 5.896 2.302 8.064 5.46.34.487 3.804 5.673 3.804 5.673 2.296 3.081 5.147 5.697 9.544 5.697v-3.958zm0-16.637c-4.41 0-7.266 2.633-9.566 5.725l2.35 3.525c2.031-2.996 4.066-5.292 7.216-5.292v-3.958zm-.779 6.76a.783.783 0 00-1.563-.001v7.136c0 .43.351.782.781.782.43 0 .782-.352.782-.782v-7.136zm-2.728 2.176a.784.784 0 00-.782-.782.784.784 0 00-.781.782v2.782c0 .43.352.782.781.782.43 0 .782-.352.782-.782v-2.782zm-9.82 2.403c-2.175 3.173-4.412 5.579-8.085 5.492-4.038-.095-6.487-3.067-8.85-6.533-.318-.466-.634-.94-.952-1.42-.46-.689-.93-1.394-1.42-2.091-2.465-3.504-5.45-6.787-10.282-6.787v3.958c3.421 0 5.56 2.862 7.89 6.34.172.255.343.513.517.774.601.903 1.219 1.83 1.876 2.736 2.602 3.592 5.825 6.855 11.128 6.98 4.95.116 8.058-2.651 10.525-5.935l-2.347-3.514zm-1.576-2.403a.784.784 0 00-.781-.782.784.784 0 00-.782.782v2.782c0 .43.352.782.782.782.43 0 .781-.352.781-.782v-2.782zm-2.817-2.177a.783.783 0 00-1.563 0v7.136c0 .43.352.782.781.782.43 0 .782-.352.782-.782v-7.136zm-2.826-1.187a.784.784 0 00-.782-.782.784.784 0 00-.782.782v9.51c0 .43.352.782.782.782.43 0 .782-.352.782-.781v-9.511zm-2.74 1.187a.783.783 0 00-1.563 0v7.136c0 .43.352.782.782.782.43 0 .781-.352.781-.782v-7.136zm-2.728 2.177a.784.784 0 00-.781-.782.784.784 0 00-.782.782v2.782c0 .43.352.782.782.782.43 0 .781-.352.781-.782v-2.782zm-9.483 2.794l-.25-.374c-2.067 2.98-4.103 5.281-7.17 5.281v3.958c4.365 0 7.224-2.678 9.553-5.779-.768-1.035-1.469-2.088-2.133-3.086zm-2.18-2.794a.785.785 0 00-.782-.782.784.784 0 00-.782.782v2.782c0 .43.351.782.782.782.43 0 .781-.352.781-.782v-2.782zm-2.773-2.177a.783.783 0 00-1.563 0v7.136c0 .43.352.782.782.782.43 0 .781-.352.781-.782v-7.136z"/><path d="M299.022 146.705c-3.14 0-5.17-2.28-7.196-5.262l-3.815-5.673c-2.463-3.266-5.566-6.01-10.494-5.894-4.807.113-7.905 2.805-10.38 5.982.587.82 1.135 1.643 1.66 2.431.233.35.463.695.692 1.035 2.152-3 4.495-5.406 8.122-5.491 3.66-.087 5.896 2.302 8.064 5.46.34.487 3.803 5.673 3.803 5.673 2.297 3.081 5.147 5.697 9.544 5.697v-3.958zm0-16.637c-4.41 0-7.265 2.633-9.566 5.725l2.35 3.525c2.031-2.996 4.066-5.292 7.216-5.292v-3.958zm-.778 6.76a.785.785 0 00-.782-.782.784.784 0 00-.782.781v7.136c0 .43.352.782.782.782.43 0 .782-.352.782-.782v-7.136zm-2.729 2.176a.784.784 0 00-.781-.782.784.784 0 00-.782.782v2.782c0 .43.352.782.782.782.43 0 .781-.352.781-.782v-2.782zm-9.82 2.403c-2.175 3.173-4.412 5.579-8.084 5.492-4.039-.095-6.488-3.067-8.85-6.533-.319-.466-.634-.94-.953-1.42-.46-.689-.929-1.394-1.419-2.091-2.465-3.504-5.45-6.787-10.283-6.787v3.958c3.422 0 5.56 2.862 7.89 6.34.172.255.344.513.518.774.6.903 1.218 1.83 1.875 2.736 2.602 3.592 5.825 6.855 11.128 6.98 4.95.116 8.058-2.651 10.525-5.935l-2.347-3.514zm-1.575-2.403a.784.784 0 00-.782-.782.784.784 0 00-.782.782v2.782c0 .43.352.782.782.782.43 0 .782-.352.782-.782v-2.782zm-2.818-2.177a.783.783 0 00-.781-.781.784.784 0 00-.782.781v7.136c0 .43.352.782.782.782.43 0 .781-.352.781-.782v-7.136zm-2.826-1.187a.784.784 0 00-.782-.782.784.784 0 00-.782.782v9.51c0 .43.352.782.782.782.43 0 .782-.352.782-.781v-9.511zm-2.74 1.187a.782.782 0 00-1.563 0v7.136c0 .43.352.782.782.782.43 0 .782-.352.782-.782v-7.136zm-2.727 2.177a.784.784 0 00-.782-.782.784.784 0 00-.782.782v2.782c0 .43.352.782.782.782.43 0 .782-.352.782-.782v-2.782zm-9.484 2.794l-.25-.374c-2.067 2.98-4.103 5.281-7.17 5.281v3.958c4.366 0 7.224-2.678 9.553-5.779-.767-1.035-1.468-2.088-2.133-3.086zm-2.18-2.794a.784.784 0 00-.782-.782.784.784 0 00-.782.782v2.782c0 .43.352.782.782.782.43 0 .782-.352.782-.782v-2.782zm-2.773-2.177a.783.783 0 00-1.563 0v7.136c0 .43.352.782.782.782.43 0 .781-.352.781-.782v-7.136z"/><path d="M341.57 146.705c-3.139 0-5.17-2.28-7.195-5.262l-3.816-5.673c-2.463-3.266-5.565-6.01-10.493-5.894-4.807.113-7.906 2.805-10.381 5.982.587.82 1.136 1.643 1.66 2.431.234.35.464.695.693 1.035 2.15-3 4.495-5.406 8.121-5.491 3.661-.087 5.896 2.302 8.064 5.46.34.487 3.803 5.673 3.803 5.673 2.297 3.081 5.147 5.697 9.545 5.697v-3.958zm0-16.637c-4.41 0-7.265 2.633-9.565 5.725l2.349 3.525c2.032-2.996 4.067-5.292 7.217-5.292v-3.958zm-.778 6.76a.784.784 0 00-.782-.782.784.784 0 00-.782.781v7.136c0 .43.352.782.782.782.43 0 .782-.352.782-.782v-7.136zm-2.728 2.176a.784.784 0 00-.782-.782.784.784 0 00-.782.782v2.782c0 .43.352.782.782.782.43 0 .782-.352.782-.782v-2.782zm-9.82 2.403c-2.175 3.173-4.413 5.579-8.085 5.492-4.038-.095-6.487-3.067-8.85-6.533-.318-.466-.634-.94-.952-1.42-.46-.689-.93-1.394-1.42-2.091-2.465-3.504-5.45-6.787-10.283-6.787v3.958c3.422 0 5.56 2.862 7.891 6.34l.517.774c.6.903 1.218 1.83 1.875 2.736 2.602 3.592 5.826 6.855 11.129 6.98 4.949.116 8.057-2.651 10.525-5.935l-2.347-3.514zm-1.576-2.403a.784.784 0 00-.782-.782.784.784 0 00-.781.782v2.782c0 .43.351.782.781.782.43 0 .782-.352.782-.782v-2.782zm-2.817-2.177a.784.784 0 00-.782-.781.784.784 0 00-.782.781v7.136c0 .43.352.782.782.782.43 0 .782-.352.782-.782v-7.136zm-2.827-1.187a.784.784 0 00-.782-.782.784.784 0 00-.782.782v9.51c0 .43.352.782.782.782.43 0 .782-.352.782-.781v-9.511zm-2.739 1.187a.783.783 0 00-1.563 0v7.136c0 .43.351.782.781.782.43 0 .782-.352.782-.782v-7.136zm-2.728 2.177a.784.784 0 00-.782-.782.784.784 0 00-.781.782v2.782c0 .43.352.782.781.782.43 0 .782-.352.782-.782v-2.782zm-9.484 2.794l-.249-.374c-2.067 2.98-4.103 5.281-7.17 5.281v3.958c4.365 0 7.223-2.678 9.552-5.779-.767-1.035-1.468-2.088-2.133-3.086zm-2.18-2.794a.784.784 0 00-.782-.782.784.784 0 00-.781.782v2.782c0 .43.351.782.781.782.43 0 .782-.352.782-.782v-2.782zm-2.772-2.177a.784.784 0 00-.782-.781.784.784 0 00-.782.781v7.136c0 .43.352.782.782.782.43 0 .782-.352.782-.782v-7.136z"/><path d="M384.119 146.705c-3.14 0-5.17-2.28-7.196-5.262l-3.816-5.673c-2.462-3.266-5.565-6.01-10.493-5.894-4.807.113-7.905 2.805-10.381 5.982.588.82 1.136 1.643 1.66 2.431.234.35.464.695.693 1.035 2.151-3 4.495-5.406 8.121-5.491 3.662-.087 5.896 2.302 8.064 5.46.34.487 3.804 5.673 3.804 5.673 2.296 3.081 5.147 5.697 9.544 5.697v-3.958zm0-16.637c-4.41 0-7.266 2.633-9.566 5.725l2.35 3.525c2.03-2.996 4.066-5.292 7.216-5.292v-3.958zm-.779 6.76a.783.783 0 00-1.563-.001v7.136c0 .43.351.782.781.782.43 0 .782-.352.782-.782v-7.136zm-2.728 2.176a.784.784 0 00-.782-.782.784.784 0 00-.781.782v2.782c0 .43.352.782.781.782.43 0 .782-.352.782-.782v-2.782zm-9.82 2.403c-2.175 3.173-4.412 5.579-8.085 5.492-4.038-.095-6.487-3.067-8.85-6.533-.318-.466-.634-.94-.952-1.42-.46-.689-.93-1.394-1.42-2.091-2.465-3.504-5.45-6.787-10.283-6.787v3.958c3.422 0 5.56 2.862 7.892 6.34l.516.774c.601.903 1.219 1.83 1.876 2.736 2.602 3.592 5.825 6.855 11.128 6.98 4.949.116 8.058-2.651 10.525-5.935l-2.347-3.514zm-1.576-2.403a.784.784 0 00-.781-.782.784.784 0 00-.782.782v2.782c0 .43.352.782.782.782.43 0 .781-.352.781-.782v-2.782zm-2.816-2.177a.783.783 0 00-1.563 0v7.136c0 .43.351.782.781.782.43 0 .782-.352.782-.782v-7.136zm-2.826-1.187a.784.784 0 00-.782-.782.784.784 0 00-.782.782v9.51c0 .43.352.782.782.782.43 0 .782-.352.782-.781v-9.511zm-2.74 1.187a.783.783 0 00-1.563 0v7.136c0 .43.352.782.782.782.43 0 .781-.352.781-.782v-7.136zm-2.728 2.177a.784.784 0 00-.781-.782.784.784 0 00-.782.782v2.782c0 .43.352.782.782.782.43 0 .781-.352.781-.782v-2.782zm-9.483 2.794l-.25-.374c-2.067 2.98-4.103 5.281-7.17 5.281v3.958c4.365 0 7.224-2.678 9.553-5.779-.768-1.035-1.469-2.088-2.133-3.086zm-2.18-2.794a.785.785 0 00-.782-.782.784.784 0 00-.782.782v2.782c0 .43.351.782.782.782.43 0 .781-.352.781-.782v-2.782zm-2.773-2.177a.783.783 0 00-1.563 0v7.136c0 .43.352.782.782.782.43 0 .781-.352.781-.782v-7.136z"/><path d="M426.667 146.705c-3.14 0-5.17-2.28-7.196-5.262l-3.815-5.673c-2.463-3.266-5.566-6.01-10.494-5.894-4.807.113-7.905 2.805-10.38 5.982.587.82 1.135 1.643 1.66 2.431.233.35.463.695.692 1.035 2.151-3 4.495-5.406 8.122-5.491 3.66-.087 5.896 2.302 8.064 5.46.34.487 3.803 5.673 3.803 5.673 2.297 3.081 5.147 5.697 9.544 5.697v-3.958zm0-16.637c-4.41 0-7.265 2.633-9.566 5.725l2.35 3.525c2.031-2.996 4.066-5.292 7.216-5.292v-3.958zm-.778 6.76a.785.785 0 00-.782-.782.784.784 0 00-.782.781v7.136c0 .43.352.782.782.782.43 0 .782-.352.782-.782v-7.136zm-2.729 2.176a.784.784 0 00-.781-.782.784.784 0 00-.782.782v2.782c0 .43.352.782.782.782.43 0 .781-.352.781-.782v-2.782zm-9.82 2.403c-2.175 3.173-4.412 5.579-8.084 5.492-4.039-.095-6.488-3.067-8.85-6.533-.319-.466-.634-.94-.953-1.42-.46-.689-.929-1.394-1.419-2.091-2.465-3.504-5.45-6.787-10.283-6.787v3.958c3.421 0 5.56 2.862 7.89 6.34.172.255.344.513.518.774.6.903 1.218 1.83 1.875 2.736 2.602 3.592 5.825 6.855 11.128 6.98 4.95.116 8.058-2.651 10.525-5.935l-2.347-3.514zm-1.575-2.403a.784.784 0 00-.782-.782.784.784 0 00-.782.782v2.782c0 .43.352.782.782.782.43 0 .782-.352.782-.782v-2.782zm-2.818-2.177a.783.783 0 00-.781-.781.784.784 0 00-.782.781v7.136c0 .43.352.782.782.782.43 0 .781-.352.781-.782v-7.136zm-2.826-1.187a.784.784 0 00-.782-.782.784.784 0 00-.782.782v9.51c0 .43.352.782.782.782.43 0 .782-.352.782-.781v-9.511zm-2.74 1.187a.782.782 0 00-1.563 0v7.136c0 .43.352.782.782.782.43 0 .782-.352.782-.782v-7.136zm-2.727 2.177a.785.785 0 00-.782-.782.784.784 0 00-.782.782v2.782c0 .43.352.782.782.782.43 0 .782-.352.782-.782v-2.782zm-9.484 2.794l-.25-.374c-2.067 2.98-4.103 5.281-7.17 5.281v3.958c4.366 0 7.224-2.678 9.553-5.779-.767-1.035-1.468-2.088-2.133-3.086zm-2.18-2.794a.784.784 0 00-.782-.782.784.784 0 00-.782.782v2.782c0 .43.352.782.782.782.43 0 .782-.352.782-.782v-2.782zm-2.773-2.177a.783.783 0 00-1.563 0v7.136c0 .43.352.782.782.782.43 0 .781-.352.781-.782v-7.136z"/><path d="M469.216 146.705c-3.14 0-5.171-2.28-7.196-5.262l-3.816-5.673c-2.463-3.266-5.565-6.01-10.493-5.894-4.807.113-7.906 2.805-10.381 5.982.587.82 1.136 1.643 1.66 2.431.234.35.463.695.693 1.035 2.15-3 4.495-5.406 8.121-5.491 3.661-.087 5.896 2.302 8.064 5.46.34.487 3.803 5.673 3.803 5.673 2.297 3.081 5.147 5.697 9.545 5.697v-3.958zm0-16.637c-4.411 0-7.266 2.633-9.567 5.725l2.35 3.525c2.032-2.996 4.067-5.292 7.217-5.292v-3.958zm-.779 6.76a.784.784 0 00-.782-.782.784.784 0 00-.782.781v7.136c0 .43.352.782.782.782.43 0 .782-.352.782-.782v-7.136zm-2.728 2.176a.784.784 0 00-.782-.782.784.784 0 00-.782.782v2.782c0 .43.352.782.782.782.43 0 .782-.352.782-.782v-2.782zm-9.82 2.403c-2.175 3.173-4.413 5.579-8.085 5.492-4.038-.095-6.488-3.067-8.85-6.533-.318-.466-.634-.94-.952-1.42-.46-.689-.93-1.394-1.42-2.091-2.465-3.504-5.45-6.787-10.283-6.787v3.958c3.422 0 5.56 2.862 7.891 6.34l.517.774c.6.903 1.218 1.83 1.875 2.736 2.602 3.592 5.826 6.855 11.129 6.98 4.949.116 8.057-2.651 10.525-5.935l-2.347-3.514zm-1.576-2.403a.784.784 0 00-.782-.782.784.784 0 00-.781.782v2.782c0 .43.351.782.781.782.43 0 .782-.352.782-.782v-2.782zm-2.817-2.177a.784.784 0 00-.782-.781.784.784 0 00-.782.781v7.136c0 .43.352.782.782.782.43 0 .782-.352.782-.782v-7.136zm-2.827-1.187a.784.784 0 00-.782-.782.784.784 0 00-.782.782v9.51c0 .43.352.782.782.782.43 0 .782-.352.782-.781v-9.511zm-2.74 1.187a.782.782 0 00-1.562 0v7.136c0 .43.351.782.781.782.43 0 .782-.352.782-.782v-7.136zm-2.727 2.177a.784.784 0 00-.782-.782.784.784 0 00-.781.782v2.782c0 .43.352.782.781.782.43 0 .782-.352.782-.782v-2.782zm-9.484 2.794l-.249-.374c-2.067 2.98-4.103 5.281-7.17 5.281v3.958c4.365 0 7.223-2.678 9.552-5.779-.767-1.035-1.468-2.088-2.133-3.086zm-2.18-2.794a.784.784 0 00-.782-.782.784.784 0 00-.782.782v2.782c0 .43.352.782.782.782.43 0 .782-.352.782-.782v-2.782zm-2.772-2.177a.784.784 0 00-.782-.781.784.784 0 00-.782.781v7.136c0 .43.352.782.782.782.43 0 .782-.352.782-.782v-7.136zM86.28 146.705c-3.139 0-5.17-2.28-7.195-5.262l-3.816-5.673c-2.463-3.266-5.565-6.01-10.493-5.894-4.807.113-7.906 2.804-10.381 5.982.588.82 1.136 1.643 1.66 2.431.234.35.464.695.693 1.035 2.15-3 4.495-5.406 8.121-5.491 3.661-.087 5.896 2.302 8.064 5.46.34.487 3.803 5.673 3.803 5.673 2.297 3.081 5.147 5.697 9.545 5.697v-3.958zm0-16.637c-4.41 0-7.265 2.633-9.565 5.725l2.35 3.525c2.03-2.996 4.066-5.292 7.216-5.292v-3.958zm-.778 6.76a.784.784 0 00-.782-.782.784.784 0 00-.782.781v7.136c0 .43.352.782.782.782.43 0 .782-.352.782-.782v-7.136zm-2.728 2.176a.784.784 0 00-.782-.782.784.784 0 00-.782.782v2.782c0 .43.352.782.782.782.43 0 .782-.352.782-.782v-2.782zm-9.82 2.403c-2.175 3.173-4.413 5.579-8.085 5.492-4.038-.095-6.487-3.067-8.85-6.533-.318-.466-.634-.94-.952-1.42-.46-.689-.93-1.394-1.42-2.091-2.465-3.504-5.45-6.787-10.283-6.787v3.958c3.422 0 5.56 2.862 7.891 6.34l.517.774c.601.903 1.218 1.83 1.875 2.736 2.602 3.592 5.826 6.855 11.129 6.98 4.949.116 8.057-2.651 10.525-5.935l-2.347-3.514zm-1.576-2.403a.784.784 0 00-.782-.782.784.784 0 00-.781.782v2.782c0 .43.352.782.781.782.43 0 .782-.352.782-.782v-2.782zm-2.817-2.177a.784.784 0 00-.782-.781.784.784 0 00-.782.781v7.136c0 .43.352.782.782.782.43 0 .782-.352.782-.782v-7.136zm-2.827-1.187a.784.784 0 00-.782-.782.784.784 0 00-.781.782v9.51c0 .43.351.782.781.782.43 0 .782-.352.782-.781v-9.511zm-2.739 1.187a.783.783 0 00-1.563 0v7.136c0 .43.352.782.781.782.43 0 .782-.352.782-.782v-7.136zm-2.728 2.177a.784.784 0 00-.781-.782.784.784 0 00-.782.782v2.782c0 .43.352.782.782.782a.784.784 0 00.781-.782v-2.782zm-9.484 2.794c-.083-.127-.166-.25-.249-.374-2.067 2.98-4.103 5.281-7.17 5.281v3.958c4.365 0 7.224-2.678 9.552-5.779-.767-1.035-1.468-2.088-2.133-3.086zm-2.18-2.794a.784.784 0 00-.782-.782.784.784 0 00-.781.782v2.782c0 .43.351.782.781.782.43 0 .782-.352.782-.782v-2.782zm-2.772-2.177a.783.783 0 00-.781-.781.784.784 0 00-.783.781v7.136c0 .43.352.782.783.782.43 0 .78-.352.78-.782v-7.136z"/></g><path stroke="#9AA9C0" d="M22 120h80v41H22z"/><path stroke="#404C77" d="M259 120h80v41h-80z"/><path stroke="#9AA9C0" d="M132 120h80v41h-80z"/><path stroke="#404C77" d="M369 120h80v41h-80z"/><path fill="#404C77" d="M210.082 94.319v2.592H200V83.468h9.89v2.593h-7.01v2.688h5.473v2.593h-5.473v2.977zm4.014 2.593h-2.784l3.168-4.801-2.976-4.609h2.88l1.729 2.785 1.728-2.785h2.88l-2.976 4.609 3.169 4.801h-2.785l-2.016-2.977zm12.216-2.208c1.249 0 2.305-1.057 2.305-2.497 0-1.441-1.056-2.496-2.305-2.496-1.248 0-2.304 1.055-2.304 2.496 0 1.44 1.056 2.497 2.304 2.497m0 2.4c-2.688 0-4.992-2.304-4.992-4.897 0-2.593 2.304-4.897 4.992-4.897 2.689 0 4.993 2.304 4.993 4.897 0 2.593-2.304 4.897-4.993 4.897m18.561-5.378c0-1.248-.672-1.92-1.537-1.92-.96 0-1.728.768-1.728 2.21v4.895h-2.593v-5.185c0-1.248-.672-1.92-1.536-1.92-.96 0-1.73.768-1.73 2.21v4.895h-2.591v-9.409h2.592v1.152s.864-1.345 2.497-1.345c2.016 0 2.688 1.633 2.688 1.633s1.057-1.633 3.169-1.633c2.017 0 3.36 1.345 3.36 4.13v5.472h-2.591v-5.185zm7.114-.48h4.321c-.192-.96-.96-1.728-2.112-1.728-1.152 0-1.92.768-2.209 1.728zm0 1.824c.192.961 1.057 1.825 2.497 1.825 1.632 0 2.496-1.152 2.496-1.152l1.345 1.728s-1.44 1.633-4.034 1.633c-2.784 0-4.992-2.209-4.992-4.897 0-2.689 2.208-4.898 4.897-4.898 2.69 0 4.705 2.017 4.705 4.706 0 .672-.096 1.055-.096 1.055h-6.818z"/><g transform="translate(260.185 83)"><mask id="b" fill="#fff"><use xlink:href="#a"/></mask><path fill="#9AA9C0" d="M3.604 9.93V6.466H.14V3.918h3.464V.455h2.342v3.463h3.465v2.548H5.946V9.93z" mask="url(#b)"/></g></g></svg>