<svg xmlns="http://www.w3.org/2000/svg" xmlns:xlink="http://www.w3.org/1999/xlink" width="90" height="90"><defs><path id="a" d="M.95.376a.915.915 0 00-.912.912v36.087c0 .502.41.912.912.912h26.978c.502 0 .912-.41.912-.912V1.288c0-.5-.41-.912-.912-.912H.95zm4.46 19.489h3.423V7.845H5.41v12.02zm14.636 0h3.422V9.704h-3.422v10.16zm-9.689 0h3.423v-8.604h-3.423v8.604zm4.947 0h3.424v-6.153h-3.424v6.153zm-9.894 5.76h18.058v-3.422H5.41v3.423zm0 5.571h18.058v-3.422H5.41v3.422z"/><path id="c" d="M.95.376a.915.915 0 00-.912.912v36.087c0 .502.41.912.912.912h26.978c.502 0 .912-.41.912-.912V1.288c0-.5-.41-.912-.912-.912H.95zm4.46 19.489h3.423V7.845H5.41v12.02zm14.636 0h3.422V9.704h-3.422v10.16zm-9.689 0h3.423v-8.604h-3.423v8.604zm4.947 0h3.424v-6.153h-3.424v6.153zm-9.894 5.76h18.058v-3.422H5.41v3.423zm0 5.571h18.058v-3.422H5.41v3.422z"/><path id="e" d="M.95.376a.915.915 0 00-.912.912v36.087c0 .502.41.912.912.912h26.978c.502 0 .912-.41.912-.912V1.288c0-.5-.41-.912-.912-.912H.95zm4.46 19.489h3.423V7.845H5.41v12.02zm14.636 0h3.422V9.704h-3.422v10.16zm-9.689 0h3.423v-8.604h-3.423v8.604zm4.947 0h3.424v-6.153h-3.424v6.153zm-9.894 5.76h18.058v-3.422H5.41v3.423zm0 5.571h18.058v-3.422H5.41v3.422z"/><path id="g" d="M.901.357a.868.868 0 00-.865.865v34.236c0 .476.389.866.865.866h25.595c.476 0 .865-.39.865-.866V1.222a.869.869 0 00-.865-.865H.901zm4.232 18.49H8.38V7.442H5.133v11.403zm13.885 0h3.247V9.205h-3.247v9.64zm-9.192 0h3.247v-8.164H9.826v8.163zm4.694 0h3.247v-5.839H14.52v5.838zM5.133 24.31h17.132v-3.247H5.133v3.247zm0 5.286h17.132v-3.248H5.133v3.248z"/></defs><g fill="none" fill-rule="evenodd"><circle cx="45" cy="45" r="45" fill="#F4F4F4"/><g transform="translate(30 26.074)"><mask id="b" fill="#fff"><use xlink:href="#a"/></mask><path fill="#6F7E9D" d="M-21.716 16.314l36.722 2.017 36.722 2.016-16.615-32.811-16.615-32.81L-1.609-14.48z" mask="url(#b)"/></g><g transform="translate(30 26.074)"><mask id="d" fill="#fff"><use xlink:href="#c"/></mask><path fill="#404C77" d="M39.902 27.183L-3.085-4.59l.957 41.141z" mask="url(#d)"/></g><g transform="translate(30 26.074)"><mask id="f" fill="#fff"><use xlink:href="#e"/></mask><path fill="#222D56" d="M43.329 21.265l-48.594 4.361L8.604 70z" mask="url(#f)"/></g><g transform="translate(31 27)"><mask id="h" fill="#fff"><use xlink:href="#g"/></mask><path fill="#1F1E3A" d="M-30.461 14.983l17.25 46.973L33.24 45.277z" mask="url(#h)"/></g></g></svg>