<svg xmlns="http://www.w3.org/2000/svg" xmlns:xlink="http://www.w3.org/1999/xlink" width="90" height="90"><defs><path id="a" d="M13.594.436v13.23H.364v9.728h13.23v13.23h8.95v-13.23h13.23v-9.728h-13.23V.436z"/></defs><g fill="none" fill-rule="evenodd"><circle cx="45" cy="45" r="45" fill="#F4F4F4"/><path fill="#6F7E9D" d="M40.594 26.45v13.23h-2.766l6.856 2.594 18.09 6.844V39.68h-13.23V26.45z"/><path fill="#404C77" d="M40.594 39.68h-13.23v9.729h13.23v13.23h8.95v-13.23h13.23V47l-6.543-3.396-15.637-8.115z"/><path fill="#222D56" d="M27.364 39.68v9.729h13.23v13.23h8.95v-6.534l-5.497-6.075-9.027-10.35z"/><g transform="translate(27 26.014)"><mask id="b" fill="#fff"><use xlink:href="#a"/></mask><path fill="#6F7E9D" d="M-6.544 12.931l-2.98-29.449-2.979-29.449 26.994 12.143 26.992 12.145L17.47-4.374z" mask="url(#b)"/></g></g></svg>