<svg xmlns="http://www.w3.org/2000/svg" width="316" height="323"><g fill="none" fill-rule="evenodd"><path fill="#FFF" d="M0 0h315v296H0z"/><path fill="#EDF4F9" d="M0 37h315v187H0z"/><path fill="#A3C8E2" d="M0 0h315v37H0z"/><path fill="#EDF4F9" d="M0 287h315v36H0z"/><text fill="#FFF" font-family="TTNorms-Bold, TT Norms" font-size="10" font-weight="bold"><tspan x="256" y="10">Mean CNV </tspan> <tspan x="256" y="22.12">Call rate</tspan></text><text fill="#FFF" font-family="TTNorms-Bold, TT Norms" font-size="10" font-weight="bold"><tspan x="175.662" y="10.342">Mean SNP &amp; </tspan> <tspan x="175.662" y="22.462">Indel Call rate</tspan></text><text fill="#FFF" font-family="TTNorms-Bold, TT Norms" font-size="10" font-weight="bold"><tspan x="52.396" y="10.342">Gene</tspan></text><text fill="#FFF" font-family="TTNorms-Bold, TT Norms" font-size="10" font-weight="bold"><tspan x="8" y="10.342">Tier</tspan></text><text fill="#4A4A4A" font-family="TTNorms-Medium, TT Norms" font-size="10" font-weight="400"><tspan x="8" y="51.313">Tier 1</tspan></text><text fill="#4A4A4A" font-family="TTNorms-Medium, TT Norms" font-size="10" font-weight="400"><tspan x="8" y="244">Tier 2</tspan></text><text fill="#4A4A4A" font-family="TTNorms-Medium, TT Norms" font-size="10" font-weight="400"><tspan x="8" y="308">Tier 3</tspan></text><text fill="#4A4A4A" font-family="TTNorms-Medium, TT Norms" font-size="10" font-weight="400"><tspan x="52" y="57">~600 genes important </tspan> <tspan x="52" y="71">in the areas of </tspan> <tspan x="52" y="85">hereditary cancer, </tspan> <tspan x="52" y="99">cardiovascular disease, </tspan> <tspan x="52" y="113">pharmacogenomics, </tspan> <tspan x="52" y="127">and carrier screening</tspan></text><text fill="#4A4A4A" font-family="TTNorms-Medium, TT Norms" font-size="10" font-weight="400"><tspan x="52" y="244">~3,000 genes related </tspan> <tspan x="52" y="258">to single-gene </tspan> <tspan x="52" y="272">disorders</tspan></text><text fill="#4A4A4A" font-family="TTNorms-Medium, TT Norms" font-size="11.018" font-weight="400"><tspan x="52" y="309">Whole exome</tspan></text><text fill="#4A4A4A" font-family="TTNorms-Medium, TT Norms" font-size="10" font-weight="400"><tspan x="46" y="148">• </tspan> <tspan x="46" y="195"> •</tspan></text><text fill="#4A4A4A" font-family="TTNorms-Medium, TT Norms" font-size="10" font-weight="400"><tspan x="74" y="148">Includes 59 </tspan> <tspan x="74" y="162">medically </tspan> <tspan x="74" y="176">actionable genes</tspan> <tspan x="74" y="195">Includes CDC </tspan> <tspan x="74" y="209">Tier 1 genes</tspan></text><text fill="#4A4A4A" font-family="TTNorms-Medium, TT Norms" font-size="10" font-weight="400"><tspan x="176" y="51">≥ 99.5%</tspan></text><text fill="#4A4A4A" font-family="TTNorms-Medium, TT Norms" font-size="10" font-weight="400"><tspan x="176" y="244">≥ 99.5%</tspan></text><text fill="#4A4A4A" font-family="TTNorms-Medium, TT Norms" font-size="10" font-weight="400"><tspan x="176" y="308">≥ 99.5%</tspan></text><text fill="#4A4A4A" font-family="TTNorms-Medium, TT Norms" font-size="10" font-weight="400"><tspan x="256" y="51">≥ 99.7%</tspan></text><text fill="#4A4A4A" font-family="TTNorms-Medium, TT Norms" font-size="10" font-weight="400"><tspan x="256" y="244">≥ 99.7%</tspan></text><text fill="#4A4A4A" font-family="TTNorms-Medium, TT Norms" font-size="10" font-weight="400"><tspan x="256" y="308">≥ 99.7%</tspan></text><path stroke="#D8D8D8" stroke-linecap="round" stroke-width=".75" d="M248.34 3.402l.583 315.999"/><path stroke="#D8D8D8" stroke-dasharray="0 1" stroke-linecap="round" stroke-width=".75" d="M43.336 3.402v316"/><path stroke="#D8D8D8" stroke-linecap="round" stroke-width=".75" d="M167.5 3.402v316"/></g></svg>